<svg version="1.1" id="Layer_1" xmlns="http://www.w3.org/2000/svg" xmlns:xlink="http://www.w3.org/1999/xlink" x="0px" y="0px"
	 width="100%" viewBox="0 0 480 480" enable-background="new 0 0 480 480" xml:space="preserve">
<path fill="#4C9078" opacity="1.000000" stroke="none" 
	d="
M213.000000,481.000000 
	C142.018356,481.000000 71.536713,481.000000 1.027532,481.000000 
	C1.027532,321.060028 1.027532,161.120026 1.027532,1.090017 
	C160.898285,1.090017 320.796661,1.090017 480.847504,1.090017 
	C480.847504,160.999893 480.847504,320.999939 480.847504,481.000000 
	C391.786743,481.000000 302.643372,481.000000 213.000000,481.000000 
M250.955490,241.915573 
	C256.305511,241.889786 261.655518,241.863983 267.883423,241.888107 
	C269.934082,241.860062 271.984772,241.832016 274.947937,241.882904 
	C278.641113,241.835434 282.334259,241.787949 286.957977,241.817627 
	C296.852692,241.817627 306.747406,241.817627 318.059967,241.817627 
	C314.759735,236.153320 312.383179,232.074341 309.999817,228.000275 
	C309.999817,228.000275 309.993622,228.008560 310.712097,228.071594 
	C311.927063,228.600174 313.240906,228.974731 314.341644,229.681274 
	C324.768951,236.374329 336.281128,240.079056 348.467834,241.474365 
	C354.004822,242.108337 359.674713,241.582016 366.280548,241.582016 
	C359.271851,235.131317 352.713348,230.170929 347.494354,224.065475 
	C336.923859,211.699722 327.189972,198.622696 316.870819,186.035965 
	C313.578766,182.020493 309.527557,178.627350 305.317078,174.545563 
	C304.767212,173.425491 304.217377,172.305435 303.606964,171.062012 
	C301.547485,172.636505 299.752075,173.860733 298.126678,175.279694 
	C293.299561,179.493698 288.539337,183.784378 283.372375,188.120850 
	C283.372375,188.120850 282.984924,188.142975 282.821320,187.439438 
	C279.203308,182.295273 275.585297,177.151108 271.830658,171.330444 
	C264.432129,160.984161 257.168396,150.537308 249.564575,140.344162 
	C246.768448,136.595871 243.168762,133.447052 239.252670,130.073792 
	C238.542969,130.726562 237.725098,131.294891 237.139679,132.044724 
	C227.002640,145.028885 216.914108,158.050919 206.772369,171.031387 
	C200.231766,179.402725 193.622314,187.720261 186.789825,195.435150 
	C182.938660,192.210464 179.180496,188.861053 175.160660,185.862503 
	C174.320129,185.235519 172.514084,185.902924 170.453323,186.067413 
	C165.309769,191.679337 160.075729,197.211472 155.041077,202.919464 
	C143.839249,215.619461 133.419937,229.114655 117.852180,238.152924 
	C116.477173,239.257278 115.102165,240.361633 113.727158,241.465988 
	C114.012589,241.881760 114.298019,242.297546 114.583450,242.713318 
	C124.730103,242.104919 134.876755,241.496521 145.801010,240.762558 
	C157.756470,238.887115 168.724548,234.423355 179.169983,228.886139 
	C181.529510,232.464996 177.172867,238.756958 183.306595,240.515381 
	C187.506195,241.719330 192.096069,241.578598 196.516449,241.984711 
	C197.670288,242.090714 198.842773,241.993713 200.942673,241.992188 
	C207.297287,241.986511 213.651886,241.980835 220.922424,241.986176 
	C224.288879,241.963974 227.655334,241.941772 231.953369,241.954102 
	C237.976868,241.930786 244.000351,241.907486 250.955490,241.915573 
M326.175201,287.335327 
	C326.452972,287.890015 326.730743,288.444702 327.421204,289.326080 
	C327.590271,289.629028 327.759308,289.932007 327.952972,291.014526 
	C327.985291,292.054230 328.017639,293.093933 327.790833,294.767975 
	C326.559570,297.072815 324.618103,299.263763 324.226837,301.703308 
	C322.920593,309.848389 331.130890,315.259949 339.850464,312.362457 
	C341.418854,311.841309 343.161346,311.496704 344.792114,311.594330 
	C347.080078,311.731262 349.338715,312.358765 352.011658,312.850342 
	C352.011658,305.078979 352.240234,298.273804 351.941223,291.491882 
	C351.690369,285.802521 348.342316,282.381622 342.782227,281.187042 
	C336.056152,279.742035 328.807587,282.143829 326.175201,287.335327 
M408.933655,307.396942 
	C409.290771,304.985718 409.647888,302.574524 410.650330,299.644775 
	C411.837372,292.293549 409.200714,286.397888 402.994110,282.648224 
	C397.971466,279.613861 392.312103,279.887024 387.440247,283.250641 
	C381.639252,287.255798 379.129425,293.114410 380.261536,300.146088 
	C382.325806,312.967133 397.647858,317.251495 408.933655,307.396942 
M146.760345,282.634979 
	C144.338577,282.231995 141.916809,281.829010 139.267242,281.388123 
	C139.267242,292.185120 139.267242,301.959442 139.267242,311.927124 
	C141.670410,311.927124 143.870407,311.927124 146.637344,311.927124 
	C146.637344,306.051422 146.713150,300.576294 146.612549,295.104462 
	C146.536728,290.980072 147.967819,288.257324 152.479095,288.174347 
	C157.064011,288.089966 157.877869,291.166626 157.871414,294.862030 
	C157.861603,300.479950 157.868851,306.097870 157.868851,311.978943 
	C160.466232,311.978943 162.566635,311.978943 165.591614,311.978943 
	C165.591614,306.254791 165.501602,300.640594 165.619110,295.030731 
	C165.719498,290.237946 168.022095,287.813416 172.009430,287.998169 
	C176.770798,288.218842 176.868362,291.660919 176.874207,295.133698 
	C176.883606,300.707703 176.876740,306.281708 176.876740,312.080811 
	C179.704056,312.080811 181.792465,312.080811 184.161194,312.080811 
	C184.292007,310.377075 184.500595,308.919220 184.498917,307.461639 
	C184.492035,301.474609 184.810303,295.452698 184.276703,289.509399 
	C183.587631,281.834717 176.372589,278.385773 169.522400,282.105377 
	C167.948608,282.959930 166.548706,284.134705 165.100250,285.140289 
	C158.911575,279.709503 155.931839,279.452820 148.509750,283.526337 
	C148.136658,283.731140 147.485962,283.430084 146.760345,282.634979 
M191.935944,284.065735 
	C191.935944,293.337067 191.935944,302.608429 191.935944,311.991333 
	C194.600769,311.991333 196.805374,311.991333 199.334671,311.991333 
	C199.334671,306.132568 199.279404,300.657990 199.351120,295.185089 
	C199.415298,290.288116 201.535004,287.752777 205.478241,287.834503 
	C210.279449,287.933929 210.373245,291.558807 210.441467,294.937531 
	C210.554779,300.549774 210.472351,306.166016 210.472351,311.833679 
	C213.391251,311.833679 215.579865,311.833679 218.098358,311.833679 
	C218.098358,306.257568 218.058502,301.108398 218.109207,295.960144 
	C218.162979,290.503693 220.080688,287.936371 224.052094,287.828918 
	C228.232758,287.715759 229.745377,289.790924 229.774368,295.785248 
	C229.800537,301.195374 229.779877,306.605682 229.779877,311.927673 
	C232.677246,311.927673 234.749435,311.927673 237.128067,311.927673 
	C237.128067,304.239349 237.362137,296.919434 237.054367,289.622437 
	C236.805969,283.732483 232.971405,280.297485 227.128738,281.012878 
	C223.727249,281.429413 220.508514,283.338470 216.914276,284.685883 
	C211.870270,279.747040 208.688400,279.462891 200.165146,283.591736 
	C197.568344,280.195587 194.841507,280.747314 191.935944,284.065735 
M65.997833,285.465454 
	C67.033752,290.425598 70.934692,292.311218 75.116837,293.718811 
	C78.733139,294.935944 82.556900,295.591248 86.072220,297.026001 
	C87.417793,297.575195 88.965256,299.603638 88.955864,300.947754 
	C88.946335,302.312286 87.391022,304.348358 86.044067,304.862427 
	C83.988197,305.647064 81.337425,306.023071 79.283127,305.413544 
	C75.439285,304.273102 71.842102,302.301300 67.745430,300.500977 
	C66.663017,302.180054 65.341095,304.230652 64.044556,306.241913 
	C70.660957,312.581940 81.060349,314.982574 89.180855,312.179047 
	C94.852089,310.221100 98.155022,305.329559 98.002922,299.113861 
	C97.877274,293.979218 94.801231,290.137726 89.142639,288.395325 
	C85.811073,287.369537 82.181847,287.076202 79.082382,285.614166 
	C77.056084,284.658386 75.739082,282.198883 74.104378,280.412903 
	C76.246094,279.195251 78.465195,276.854858 80.513252,276.996063 
	C84.649071,277.281067 88.691978,278.914154 93.256531,280.118805 
	C94.128410,278.664612 95.270561,276.759674 96.366821,274.931244 
	C91.337479,270.903168 85.099510,268.788696 79.774902,269.081604 
	C70.349548,269.600128 65.370720,275.202484 65.997833,285.465454 
M316.168243,274.217255 
	C307.343079,267.645477 297.692932,267.282196 289.342560,273.207397 
	C282.190765,278.282135 278.656403,288.204559 280.979279,296.686493 
	C283.485870,305.839111 291.396088,312.601807 300.200897,313.119690 
	C309.301910,313.654999 316.465698,309.788025 319.266510,302.707825 
	C317.343689,301.554138 315.398743,300.387146 313.505981,299.251495 
	C305.530151,306.851135 299.192657,307.742981 293.458008,302.205536 
	C287.727448,296.672119 287.182861,286.643463 292.467194,280.908264 
	C297.815582,275.103577 306.026276,274.773529 313.432648,282.541626 
	C315.375519,281.509796 317.361237,280.455200 319.747711,279.187775 
	C318.501282,277.379852 317.579102,276.042206 316.168243,274.217255 
M131.821152,291.545380 
	C131.821152,288.271271 131.821152,284.997192 131.821152,281.255066 
	C128.945038,281.444397 126.731750,281.590118 124.130829,281.761353 
	C124.130829,288.044739 124.235405,293.847626 124.096581,299.644684 
	C123.992058,304.009521 121.079582,306.534454 116.669540,306.396210 
	C112.328499,306.260162 111.093307,303.569580 111.130135,299.722992 
	C111.187103,293.772614 111.145157,287.821320 111.145157,281.626404 
	C108.497650,281.626404 106.406647,281.626404 103.972588,281.626404 
	C103.972588,289.868195 103.689178,297.970490 104.171730,306.026886 
	C104.292473,308.042664 106.516518,310.434479 108.405647,311.737579 
	C112.316338,314.435120 116.585365,313.734100 120.723740,311.700989 
	C121.702049,311.220367 122.963974,310.893707 124.008369,311.056091 
	C126.436920,311.433685 128.812408,312.152649 131.823090,312.881958 
	C131.823090,305.157288 131.823090,298.845215 131.821152,291.545380 
M271.331757,281.238098 
	C270.806274,280.213776 269.905640,279.220856 269.816956,278.160004 
	C269.290161,271.858124 268.572113,271.342590 262.016602,273.345520 
	C261.961914,274.401428 261.916779,275.546936 261.839600,276.690338 
	C261.751648,277.992737 261.635132,279.293243 261.538300,280.503967 
	C255.468689,282.558197 255.468689,282.558197 257.063538,288.261475 
	C261.564209,287.475189 262.171844,290.124664 261.861206,293.846832 
	C261.612885,296.822144 261.747040,299.833893 261.791290,302.828308 
	C261.921600,311.650024 267.351410,315.117615 276.106598,311.711060 
	C276.106598,310.842590 276.180450,309.856018 276.085510,308.885956 
	C275.992920,307.939453 275.727875,307.009827 275.538513,306.072784 
	C275.167023,306.392242 274.795502,306.711670 274.424011,307.031097 
	C272.809418,305.506500 270.054749,304.148987 269.802094,302.424805 
	C269.143127,297.927979 269.580261,293.270569 269.580261,288.706085 
	C272.050995,288.252625 273.782654,287.934845 275.726868,287.578033 
	C275.608856,284.629974 277.636108,280.961365 271.331757,281.238098 
M359.585876,292.546143 
	C359.585876,299.107117 359.585876,305.668060 359.585876,312.108398 
	C362.582886,312.108398 364.674194,312.108398 366.661133,312.108398 
	C366.855438,311.444702 367.025574,311.129303 367.028778,310.812195 
	C367.067566,306.990509 367.098083,303.168610 367.098877,299.346741 
	C367.100800,290.307648 367.294952,290.071136 376.167114,288.431305 
	C376.436066,288.381592 376.650757,288.038239 376.856323,287.861389 
	C376.856323,285.588928 376.856323,283.368988 376.856323,280.257141 
	C373.429626,281.664307 370.635956,282.811523 367.842285,283.958740 
	C367.946747,283.512299 368.051239,283.065887 368.155701,282.619446 
	C365.542297,282.126648 362.928894,281.633850 359.594330,281.005035 
	C359.594330,285.309540 359.594330,288.438446 359.585876,292.546143 
M244.290222,296.503967 
	C244.290222,301.607605 244.290222,306.711212 244.290222,312.087952 
	C247.208542,312.087952 249.439667,312.087952 251.692047,312.087952 
	C251.692047,301.657806 251.692047,291.588593 251.692047,281.125763 
	C249.176773,281.350647 247.093262,281.536926 244.292694,281.787354 
	C244.292694,286.597198 244.292694,291.053406 244.290222,296.503967 
M249.194122,276.753265 
	C250.392975,275.009613 252.065277,273.391785 252.577164,271.465576 
	C252.809052,270.592926 250.883759,268.328308 249.673126,268.101013 
	C248.203796,267.825134 245.978455,268.581543 244.924591,269.692383 
	C242.513748,272.233643 244.098877,275.195709 249.194122,276.753265 
z"/>
<path fill="#2A6A5A" opacity="1.000000" stroke="none" 
	d="
M305.823730,174.949448 
	C309.527557,178.627350 313.578766,182.020493 316.870819,186.035965 
	C327.189972,198.622696 336.923859,211.699722 347.494354,224.065475 
	C352.713348,230.170929 359.271851,235.131317 366.280548,241.582016 
	C359.674713,241.582016 354.004822,242.108337 348.467834,241.474365 
	C336.281128,240.079056 324.768951,236.374329 314.341644,229.681274 
	C313.240906,228.974731 311.927063,228.600174 310.330566,227.969986 
	C309.949066,227.868378 309.782715,227.843735 309.782715,227.843735 
	C309.782715,227.843735 310.006622,227.995377 310.006622,227.995361 
	C312.383179,232.074341 314.759735,236.153320 318.059967,241.817627 
	C306.747406,241.817627 296.852692,241.817627 286.485535,241.372345 
	C286.009247,233.684708 285.801453,226.433853 286.102875,219.204239 
	C286.221924,216.349152 287.544617,213.556976 288.187378,210.706451 
	C288.609131,208.836243 288.794739,206.912796 289.086121,205.013184 
	C288.735504,204.934036 288.384888,204.854904 288.034241,204.775757 
	C288.781281,204.064148 289.528320,203.352539 290.275330,202.640930 
	C289.775085,202.700607 289.274811,202.760284 288.774567,202.819977 
	C286.844666,197.927643 284.914795,193.035309 282.984924,188.142975 
	C282.984924,188.142975 283.372375,188.120850 283.741058,188.382797 
	C287.866089,194.210327 291.622437,199.775909 295.632324,205.717178 
	C298.766785,201.727509 301.469025,198.287933 304.149780,194.875717 
	C309.487976,198.633209 314.341095,202.049271 319.194214,205.465332 
	C319.604645,204.982513 320.015106,204.499710 320.425537,204.016891 
	C317.667786,198.630356 314.881805,193.258026 312.161316,187.852737 
	C310.007111,183.572617 307.933258,179.252060 305.823730,174.949448 
z"/>
<path fill="#2B6A5A" opacity="1.000000" stroke="none" 
	d="
M171.152985,185.973846 
	C172.514084,185.902924 174.320129,185.235519 175.160660,185.862503 
	C179.180496,188.861053 182.938660,192.210464 186.959229,196.090347 
	C188.701416,199.378586 190.549194,198.909943 192.809586,197.524918 
	C198.799393,193.854706 204.893143,190.354156 210.937134,187.164627 
	C209.312912,191.033127 207.697083,194.523087 205.995514,198.359222 
	C202.575531,204.110382 199.241287,209.515381 195.639679,215.114471 
	C189.909744,219.573624 184.447189,223.838669 178.984634,228.103714 
	C168.724548,234.423355 157.756470,238.887115 145.320099,240.498505 
	C143.360138,237.172607 141.074051,235.960922 137.595795,236.500397 
	C136.503021,236.669891 135.211212,235.556244 134.011475,235.009155 
	C134.012421,234.988419 134.042038,235.017700 134.427917,235.018036 
	C137.128525,233.581863 139.443283,232.145340 141.844833,230.801132 
	C141.931625,230.893448 141.733826,230.735062 142.117737,230.769165 
	C144.277756,229.464325 146.053864,228.125366 147.835175,226.823029 
	C147.840393,226.859634 147.766434,226.858383 147.998611,226.758484 
	C148.484390,226.439713 148.738007,226.220825 149.186584,225.726288 
	C153.956528,222.147400 158.554443,218.875137 163.088913,215.517242 
	C164.112061,214.759598 165.494812,213.830109 165.726807,212.765121 
	C167.665924,203.863098 169.374725,194.910904 171.152985,185.973846 
z"/>
<path fill="#F6FCFA" opacity="1.000000" stroke="none" 
	d="
M210.945526,186.786102 
	C204.893143,190.354156 198.799393,193.854706 192.809586,197.524918 
	C190.549194,198.909943 188.701416,199.378586 187.086182,196.403717 
	C193.622314,187.720261 200.231766,179.402725 206.772369,171.031387 
	C216.914108,158.050919 227.002640,145.028885 237.139679,132.044724 
	C237.725098,131.294891 238.542969,130.726562 239.648621,130.421478 
	C242.348373,136.518692 244.652176,142.268204 246.987915,148.407074 
	C247.569992,150.157364 248.407181,151.480881 248.590683,152.889542 
	C248.779617,154.339905 248.735458,156.142883 247.992096,157.256973 
	C247.618240,157.817261 245.377594,157.458649 244.140945,157.041656 
	C242.178741,156.379990 240.350525,155.320984 238.090057,154.252579 
	C228.936798,165.223038 219.941162,176.004562 210.945526,186.786102 
z"/>
<path fill="#337262" opacity="1.000000" stroke="none" 
	d="
M246.955963,148.017715 
	C244.652176,142.268204 242.348373,136.518692 239.990082,130.396973 
	C243.168762,133.447052 246.768448,136.595871 249.564575,140.344162 
	C257.168396,150.537308 264.432129,160.984161 271.529175,171.667542 
	C270.047516,172.235565 268.867340,172.466507 267.622314,172.710129 
	C268.492706,175.774216 269.020416,178.373520 269.980530,180.801880 
	C270.928223,183.198807 272.313263,185.422836 273.286316,187.298401 
	C272.330811,189.366867 270.670715,191.212646 270.891235,192.796600 
	C271.693909,198.562164 272.652832,204.397903 274.487518,209.895264 
	C275.692871,213.506973 275.177643,216.066574 273.385437,219.124451 
	C272.292877,220.988586 271.679962,223.513672 271.849640,225.663071 
	C272.276245,231.067215 273.269409,236.426620 274.035461,241.803970 
	C271.984772,241.832016 269.934082,241.860062 267.433899,241.481567 
	C266.561737,239.491760 265.911865,237.930420 265.756714,236.321365 
	C265.163269,230.166458 263.249756,223.630920 264.656158,217.935654 
	C266.029480,212.374390 264.282349,210.261414 260.282440,208.308029 
	C259.112885,207.736877 257.302429,207.507675 256.233398,208.032883 
	C255.486801,208.399673 255.533142,210.326416 255.170441,211.539963 
	C254.425354,214.032913 253.643448,216.514832 252.770874,218.545746 
	C252.636719,215.428268 252.736557,212.757233 252.547745,210.106750 
	C252.310349,206.774200 253.779068,205.707672 256.964844,205.958466 
	C271.498169,207.102600 268.815674,204.412476 269.073975,192.872559 
	C269.085114,192.374619 269.028839,191.875443 269.012207,191.376556 
	C268.910126,188.317596 267.407471,186.875488 264.273621,186.970490 
	C260.665131,187.079880 257.050812,186.995911 253.373230,186.995911 
	C252.848450,181.345505 252.378174,176.281876 251.954956,170.828156 
	C255.384720,161.824707 251.680359,154.806427 246.955963,148.017715 
z"/>
<path fill="#F2FBF8" opacity="1.000000" stroke="none" 
	d="
M146.862427,282.999786 
	C147.485962,283.430084 148.136658,283.731140 148.509750,283.526337 
	C155.931839,279.452820 158.911575,279.709503 165.100250,285.140289 
	C166.548706,284.134705 167.948608,282.959930 169.522400,282.105377 
	C176.372589,278.385773 183.587631,281.834717 184.276703,289.509399 
	C184.810303,295.452698 184.492035,301.474609 184.498917,307.461639 
	C184.500595,308.919220 184.292007,310.377075 184.161194,312.080811 
	C181.792465,312.080811 179.704056,312.080811 176.876740,312.080811 
	C176.876740,306.281708 176.883606,300.707703 176.874207,295.133698 
	C176.868362,291.660919 176.770798,288.218842 172.009430,287.998169 
	C168.022095,287.813416 165.719498,290.237946 165.619110,295.030731 
	C165.501602,300.640594 165.591614,306.254791 165.591614,311.978943 
	C162.566635,311.978943 160.466232,311.978943 157.868851,311.978943 
	C157.868851,306.097870 157.861603,300.479950 157.871414,294.862030 
	C157.877869,291.166626 157.064011,288.089966 152.479095,288.174347 
	C147.967819,288.257324 146.536728,290.980072 146.612549,295.104462 
	C146.713150,300.576294 146.637344,306.051422 146.637344,311.927124 
	C143.870407,311.927124 141.670410,311.927124 139.267242,311.927124 
	C139.267242,301.959442 139.267242,292.185120 139.267242,281.388123 
	C141.916809,281.829010 144.338577,282.231995 146.862427,282.999786 
z"/>
<path fill="#F5FCFA" opacity="1.000000" stroke="none" 
	d="
M191.974518,283.633362 
	C194.841507,280.747314 197.568344,280.195587 200.165146,283.591736 
	C208.688400,279.462891 211.870270,279.747040 216.914276,284.685883 
	C220.508514,283.338470 223.727249,281.429413 227.128738,281.012878 
	C232.971405,280.297485 236.805969,283.732483 237.054367,289.622437 
	C237.362137,296.919434 237.128067,304.239349 237.128067,311.927673 
	C234.749435,311.927673 232.677246,311.927673 229.779877,311.927673 
	C229.779877,306.605682 229.800537,301.195374 229.774368,295.785248 
	C229.745377,289.790924 228.232758,287.715759 224.052094,287.828918 
	C220.080688,287.936371 218.162979,290.503693 218.109207,295.960144 
	C218.058502,301.108398 218.098358,306.257568 218.098358,311.833679 
	C215.579865,311.833679 213.391251,311.833679 210.472351,311.833679 
	C210.472351,306.166016 210.554779,300.549774 210.441467,294.937531 
	C210.373245,291.558807 210.279449,287.933929 205.478241,287.834503 
	C201.535004,287.752777 199.415298,290.288116 199.351120,295.185089 
	C199.279404,300.657990 199.334671,306.132568 199.334671,311.991333 
	C196.805374,311.991333 194.600769,311.991333 191.935944,311.991333 
	C191.935944,302.608429 191.935944,293.337067 191.974518,283.633362 
z"/>
<path fill="#F2FBF8" opacity="1.000000" stroke="none" 
	d="
M65.942696,285.086792 
	C65.370720,275.202484 70.349548,269.600128 79.774902,269.081604 
	C85.099510,268.788696 91.337479,270.903168 96.366821,274.931244 
	C95.270561,276.759674 94.128410,278.664612 93.256531,280.118805 
	C88.691978,278.914154 84.649071,277.281067 80.513252,276.996063 
	C78.465195,276.854858 76.246094,279.195251 74.104378,280.412903 
	C75.739082,282.198883 77.056084,284.658386 79.082382,285.614166 
	C82.181847,287.076202 85.811073,287.369537 89.142639,288.395325 
	C94.801231,290.137726 97.877274,293.979218 98.002922,299.113861 
	C98.155022,305.329559 94.852089,310.221100 89.180855,312.179047 
	C81.060349,314.982574 70.660957,312.581940 64.044556,306.241913 
	C65.341095,304.230652 66.663017,302.180054 67.745430,300.500977 
	C71.842102,302.301300 75.439285,304.273102 79.283127,305.413544 
	C81.337425,306.023071 83.988197,305.647064 86.044067,304.862427 
	C87.391022,304.348358 88.946335,302.312286 88.955864,300.947754 
	C88.965256,299.603638 87.417793,297.575195 86.072220,297.026001 
	C82.556900,295.591248 78.733139,294.935944 75.116837,293.718811 
	C70.934692,292.311218 67.033752,290.425598 65.942696,285.086792 
z"/>
<path fill="#2D6E5D" opacity="1.000000" stroke="none" 
	d="
M274.491699,241.843445 
	C273.269409,236.426620 272.276245,231.067215 271.849640,225.663071 
	C271.679962,223.513672 272.292877,220.988586 273.385437,219.124451 
	C275.177643,216.066574 275.692871,213.506973 274.487518,209.895264 
	C272.652832,204.397903 271.693909,198.562164 270.891235,192.796600 
	C270.670715,191.212646 272.330811,189.366867 273.286316,187.298401 
	C272.313263,185.422836 270.928223,183.198807 269.980530,180.801880 
	C269.020416,178.373520 268.492706,175.774216 267.622314,172.710129 
	C268.867340,172.466507 270.047516,172.235565 271.597473,172.005798 
	C275.585297,177.151108 279.203308,182.295273 282.903137,187.791199 
	C284.914795,193.035309 286.844666,197.927643 288.774567,202.819977 
	C289.274811,202.760284 289.775085,202.700607 290.275330,202.640930 
	C289.528320,203.352539 288.781281,204.064148 288.034241,204.775757 
	C288.384888,204.854904 288.735504,204.934036 289.086121,205.013184 
	C288.794739,206.912796 288.609131,208.836243 288.187378,210.706451 
	C287.544617,213.556976 286.221924,216.349152 286.102875,219.204239 
	C285.801453,226.433853 286.009247,233.684708 286.020264,241.333771 
	C282.334259,241.787949 278.641113,241.835434 274.491699,241.843445 
z"/>
<path fill="#F2FBF8" opacity="1.000000" stroke="none" 
	d="
M316.412598,274.460938 
	C317.579102,276.042206 318.501282,277.379852 319.747711,279.187775 
	C317.361237,280.455200 315.375519,281.509796 313.432648,282.541626 
	C306.026276,274.773529 297.815582,275.103577 292.467194,280.908264 
	C287.182861,286.643463 287.727448,296.672119 293.458008,302.205536 
	C299.192657,307.742981 305.530151,306.851135 313.505981,299.251495 
	C315.398743,300.387146 317.343689,301.554138 319.266510,302.707825 
	C316.465698,309.788025 309.301910,313.654999 300.200897,313.119690 
	C291.396088,312.601807 283.485870,305.839111 280.979279,296.686493 
	C278.656403,288.204559 282.190765,278.282135 289.342560,273.207397 
	C297.692932,267.282196 307.343079,267.645477 316.412598,274.460938 
z"/>
<path fill="#3F826F" opacity="1.000000" stroke="none" 
	d="
M195.907059,214.920395 
	C199.241287,209.515381 202.575531,204.110382 206.397919,198.321869 
	C210.253082,197.623199 213.620102,197.308075 217.082214,197.393692 
	C217.831421,200.448517 218.485535,203.102600 218.729767,205.809143 
	C214.417130,205.873947 213.828354,207.749130 214.502731,211.343658 
	C215.143997,214.761536 215.372940,218.511475 214.654205,221.874100 
	C213.361496,227.922165 213.976410,233.258362 217.800217,238.188965 
	C218.687576,239.333191 219.278946,240.707001 220.006500,241.975159 
	C213.651886,241.980835 207.297287,241.986511 200.388748,241.641052 
	C199.201859,237.691635 198.483704,234.105789 197.956253,230.492081 
	C197.200211,225.312164 196.583344,220.111954 195.907059,214.920395 
z"/>
<path fill="#F4FBFA" opacity="1.000000" stroke="none" 
	d="
M170.803162,186.020630 
	C169.374725,194.910904 167.665924,203.863098 165.726807,212.765121 
	C165.494812,213.830109 164.112061,214.759598 163.088913,215.517242 
	C158.554443,218.875137 153.956528,222.147400 148.915253,225.756927 
	C148.221466,226.328278 147.993942,226.593323 147.766434,226.858383 
	C147.766434,226.858383 147.840393,226.859634 147.508865,226.905838 
	C145.362823,228.213043 143.548325,229.474045 141.733826,230.735062 
	C141.733826,230.735062 141.931625,230.893448 141.506592,230.878937 
	C138.735046,232.248856 136.388550,233.633286 134.042053,235.017700 
	C134.042038,235.017700 134.012421,234.988419 133.642227,235.028458 
	C129.453568,236.614410 125.682137,238.303223 121.777863,239.588455 
	C120.974571,239.852890 119.675247,238.610519 118.604561,238.062668 
	C133.419937,229.114655 143.839249,215.619461 155.041077,202.919464 
	C160.075729,197.211472 165.309769,191.679337 170.803162,186.020630 
z"/>
<path fill="#EFF9F6" opacity="1.000000" stroke="none" 
	d="
M408.867004,308.231079 
	C397.647858,317.251495 382.325806,312.967133 380.261536,300.146088 
	C379.129425,293.114410 381.639252,287.255798 387.440247,283.250641 
	C392.312103,279.887024 397.971466,279.613861 402.994110,282.648224 
	C409.200714,286.397888 411.837372,292.293549 409.866669,299.811829 
	C402.186127,299.978851 395.289246,299.978851 388.204254,299.978851 
	C390.826416,307.518799 395.470978,308.630859 405.462860,304.265137 
	C406.502472,305.476318 407.684753,306.853729 408.867004,308.231079 
M398.950775,292.697418 
	C402.118713,290.999390 402.317291,289.244324 398.910980,287.681183 
	C394.373413,285.598938 389.446899,288.508392 388.465302,294.359741 
	C391.833649,293.900330 394.999603,293.468536 398.950775,292.697418 
z"/>
<path fill="#F1FBF7" opacity="1.000000" stroke="none" 
	d="
M327.928375,290.234985 
	C327.759308,289.932007 327.590271,289.629028 327.212769,288.837616 
	C326.710663,287.801758 326.416992,287.254364 326.123291,286.706970 
	C328.807587,282.143829 336.056152,279.742035 342.782227,281.187042 
	C348.342316,282.381622 351.690369,285.802521 351.941223,291.491882 
	C352.240234,298.273804 352.011658,305.078979 352.011658,312.850342 
	C349.338715,312.358765 347.080078,311.731262 344.792114,311.594330 
	C343.161346,311.496704 341.418854,311.841309 339.850464,312.362457 
	C331.130890,315.259949 322.920593,309.848389 324.226837,301.703308 
	C324.618103,299.263763 326.559570,297.072815 328.334656,294.403992 
	C334.135864,294.039978 339.393250,294.039978 344.622559,294.039978 
	C343.614990,288.031158 338.600708,285.445984 332.791016,288.167297 
	C331.197021,288.913940 329.550690,289.548828 327.928375,290.234985 
M333.739319,299.126251 
	C331.507782,301.348907 330.874786,304.365723 333.458588,305.950958 
	C335.630280,307.283356 338.990784,307.279938 341.677094,306.878265 
	C342.766357,306.715424 344.526398,302.889801 344.158630,302.513885 
	C342.379730,300.695557 340.071869,299.298950 337.752258,298.157867 
	C336.949402,297.762939 335.571716,298.536469 333.739319,299.126251 
z"/>
<path fill="#F6FCFA" opacity="1.000000" stroke="none" 
	d="
M305.570404,174.747498 
	C307.933258,179.252060 310.007111,183.572617 312.161316,187.852737 
	C314.881805,193.258026 317.667786,198.630356 320.425537,204.016891 
	C320.015106,204.499710 319.604645,204.982513 319.194214,205.465332 
	C314.341095,202.049271 309.487976,198.633209 304.149780,194.875717 
	C301.469025,198.287933 298.766785,201.727509 295.632324,205.717178 
	C291.622437,199.775909 287.866089,194.210327 283.931366,188.344925 
	C288.539337,183.784378 293.299561,179.493698 298.126678,175.279694 
	C299.752075,173.860733 301.547485,172.636505 303.606964,171.062012 
	C304.217377,172.305435 304.767212,173.425491 305.570404,174.747498 
z"/>
<path fill="#EFF9F6" opacity="1.000000" stroke="none" 
	d="
M131.822113,292.039276 
	C131.823090,298.845215 131.823090,305.157288 131.823090,312.881958 
	C128.812408,312.152649 126.436920,311.433685 124.008369,311.056091 
	C122.963974,310.893707 121.702049,311.220367 120.723740,311.700989 
	C116.585365,313.734100 112.316338,314.435120 108.405647,311.737579 
	C106.516518,310.434479 104.292473,308.042664 104.171730,306.026886 
	C103.689178,297.970490 103.972588,289.868195 103.972588,281.626404 
	C106.406647,281.626404 108.497650,281.626404 111.145157,281.626404 
	C111.145157,287.821320 111.187103,293.772614 111.130135,299.722992 
	C111.093307,303.569580 112.328499,306.260162 116.669540,306.396210 
	C121.079582,306.534454 123.992058,304.009521 124.096581,299.644684 
	C124.235405,293.847626 124.130829,288.044739 124.130829,281.761353 
	C126.731750,281.590118 128.945038,281.444397 131.821152,281.255066 
	C131.821152,284.997192 131.821152,288.271271 131.822113,292.039276 
z"/>
<path fill="#3A7F6C" opacity="1.000000" stroke="none" 
	d="
M220.464462,241.980682 
	C219.278946,240.707001 218.687576,239.333191 217.800217,238.188965 
	C213.976410,233.258362 213.361496,227.922165 214.654205,221.874100 
	C215.372940,218.511475 215.143997,214.761536 214.502731,211.343658 
	C213.828354,207.749130 214.417130,205.873947 218.710587,205.840179 
	C219.101273,205.818756 219.044022,205.773621 219.209229,205.991730 
	C219.643280,206.453644 219.912140,206.697449 220.396301,206.953781 
	C220.611588,206.966293 221.014099,207.121292 221.126312,207.198761 
	C221.238541,207.276215 221.628494,207.318481 221.628494,207.318481 
	C221.628494,207.318481 221.985138,207.132217 222.319839,207.066193 
	C223.104614,207.049576 223.554672,207.098969 224.140747,207.454681 
	C225.904968,210.190475 227.409775,212.716995 229.211945,215.009750 
	C230.156448,216.211365 231.622528,217.003006 232.924805,218.313171 
	C232.970367,219.099380 232.944183,219.552231 232.574707,220.103088 
	C231.173096,222.295517 229.195602,224.408569 229.237625,226.480682 
	C229.342178,231.636917 230.366669,236.774490 231.021790,241.919556 
	C227.655334,241.941772 224.288879,241.963974 220.464462,241.980682 
z"/>
<path fill="#EFF9F6" opacity="1.000000" stroke="none" 
	d="
M271.776611,281.257782 
	C277.636108,280.961365 275.608856,284.629974 275.726868,287.578033 
	C273.782654,287.934845 272.050995,288.252625 269.580261,288.706085 
	C269.580261,293.270569 269.143127,297.927979 269.802094,302.424805 
	C270.054749,304.148987 272.809418,305.506500 274.424011,307.031097 
	C274.795502,306.711670 275.167023,306.392242 275.538513,306.072784 
	C275.727875,307.009827 275.992920,307.939453 276.085510,308.885956 
	C276.180450,309.856018 276.106598,310.842590 276.106598,311.711060 
	C267.351410,315.117615 261.921600,311.650024 261.791290,302.828308 
	C261.747040,299.833893 261.612885,296.822144 261.861206,293.846832 
	C262.171844,290.124664 261.564209,287.475189 257.063538,288.261475 
	C255.468689,282.558197 255.468689,282.558197 261.538300,280.503967 
	C261.635132,279.293243 261.751648,277.992737 261.839600,276.690338 
	C261.916779,275.546936 261.961914,274.401428 262.016602,273.345520 
	C268.572113,271.342590 269.290161,271.858124 269.816956,278.160004 
	C269.905640,279.220856 270.806274,280.213776 271.776611,281.257782 
z"/>
<path fill="#337462" opacity="1.000000" stroke="none" 
	d="
M252.876709,219.001297 
	C253.643448,216.514832 254.425354,214.032913 255.170441,211.539963 
	C255.533142,210.326416 255.486801,208.399673 256.233398,208.032883 
	C257.302429,207.507675 259.112885,207.736877 260.282440,208.308029 
	C264.282349,210.261414 266.029480,212.374390 264.656158,217.935654 
	C263.249756,223.630920 265.163269,230.166458 265.756714,236.321365 
	C265.911865,237.930420 266.561737,239.491760 266.994934,241.456604 
	C261.655518,241.863983 256.305511,241.889786 250.455948,241.536560 
	C249.968903,235.441238 249.981400,229.724945 250.373413,223.950592 
	C251.458878,222.418655 252.164841,220.944763 252.780670,219.352325 
	C252.690552,219.233780 252.876709,219.001297 252.876709,219.001297 
z"/>
<path fill="#377967" opacity="1.000000" stroke="none" 
	d="
M249.993896,224.008636 
	C249.981400,229.724945 249.968903,235.441238 249.990128,241.520859 
	C244.000351,241.907486 237.976868,241.930786 231.487579,241.936829 
	C230.366669,236.774490 229.342178,231.636917 229.237625,226.480682 
	C229.195602,224.408569 231.173096,222.295517 232.778717,220.342010 
	C234.220581,221.338211 235.115158,222.193542 236.361816,223.257965 
	C241.140579,223.647583 245.567230,223.828110 249.993896,224.008636 
z"/>
<path fill="#448875" opacity="1.000000" stroke="none" 
	d="
M195.639679,215.114471 
	C196.583344,220.111954 197.200211,225.312164 197.956253,230.492081 
	C198.483704,234.105789 199.201859,237.691635 199.920761,241.639954 
	C198.842773,241.993713 197.670288,242.090714 196.516449,241.984711 
	C192.096069,241.578598 187.506195,241.719330 183.306595,240.515381 
	C177.172867,238.756958 181.529510,232.464996 179.077301,228.494934 
	C184.447189,223.838669 189.909744,219.573624 195.639679,215.114471 
z"/>
<path fill="#F4FBFA" opacity="1.000000" stroke="none" 
	d="
M359.590088,292.056732 
	C359.594330,288.438446 359.594330,285.309540 359.594330,281.005035 
	C362.928894,281.633850 365.542297,282.126648 368.155701,282.619446 
	C368.051239,283.065887 367.946747,283.512299 367.842285,283.958740 
	C370.635956,282.811523 373.429626,281.664307 376.856323,280.257141 
	C376.856323,283.368988 376.856323,285.588928 376.856323,287.861389 
	C376.650757,288.038239 376.436066,288.381592 376.167114,288.431305 
	C367.294952,290.071136 367.100800,290.307648 367.098877,299.346741 
	C367.098083,303.168610 367.067566,306.990509 367.028778,310.812195 
	C367.025574,311.129303 366.855438,311.444702 366.661133,312.108398 
	C364.674194,312.108398 362.582886,312.108398 359.585876,312.108398 
	C359.585876,305.668060 359.585876,299.107117 359.590088,292.056732 
z"/>
<path fill="#ECF7F3" opacity="1.000000" stroke="none" 
	d="
M244.291458,296.006775 
	C244.292694,291.053406 244.292694,286.597198 244.292694,281.787354 
	C247.093262,281.536926 249.176773,281.350647 251.692047,281.125763 
	C251.692047,291.588593 251.692047,301.657806 251.692047,312.087952 
	C249.439667,312.087952 247.208542,312.087952 244.290222,312.087952 
	C244.290222,306.711212 244.290222,301.607605 244.291458,296.006775 
z"/>
<path fill="#337262" opacity="1.000000" stroke="none" 
	d="
M118.228371,238.107788 
	C119.675247,238.610519 120.974571,239.852890 121.777863,239.588455 
	C125.682137,238.303223 129.453568,236.614410 133.641266,235.049194 
	C135.211212,235.556244 136.503021,236.669891 137.595795,236.500397 
	C141.074051,235.960922 143.360138,237.172607 144.931290,240.561279 
	C134.876755,241.496521 124.730103,242.104919 114.583450,242.713318 
	C114.298019,242.297546 114.012589,241.881760 113.727158,241.465988 
	C115.102165,240.361633 116.477173,239.257278 118.228371,238.107788 
z"/>
<path fill="#588D7D" opacity="1.000000" stroke="none" 
	d="
M408.900330,307.814026 
	C407.684753,306.853729 406.502472,305.476318 405.462860,304.265137 
	C395.470978,308.630859 390.826416,307.518799 388.204254,299.978851 
	C395.289246,299.978851 402.186127,299.978851 409.544006,300.071075 
	C409.647888,302.574524 409.290771,304.985718 408.900330,307.814026 
z"/>
<path fill="#588D7D" opacity="1.000000" stroke="none" 
	d="
M327.940674,290.624756 
	C329.550690,289.548828 331.197021,288.913940 332.791016,288.167297 
	C338.600708,285.445984 343.614990,288.031158 344.622559,294.039978 
	C339.393250,294.039978 334.135864,294.039978 328.464233,294.086792 
	C328.017639,293.093933 327.985291,292.054230 327.940674,290.624756 
z"/>
<path fill="#ECF7F3" opacity="1.000000" stroke="none" 
	d="
M248.815948,276.801239 
	C244.098877,275.195709 242.513748,272.233643 244.924591,269.692383 
	C245.978455,268.581543 248.203796,267.825134 249.673126,268.101013 
	C250.883759,268.328308 252.809052,270.592926 252.577164,271.465576 
	C252.065277,273.391785 250.392975,275.009613 248.815948,276.801239 
z"/>
<path fill="#588D7D" opacity="1.000000" stroke="none" 
	d="
M326.149231,287.021149 
	C326.416992,287.254364 326.710663,287.801758 327.006409,288.674255 
	C326.730743,288.444702 326.452972,287.890015 326.149231,287.021149 
z"/>
<path fill="#4C9078" opacity="1.000000" stroke="none" 
	d="
M310.003235,227.997833 
	C310.006622,227.995377 309.782715,227.843735 309.782715,227.843735 
	C309.782715,227.843735 309.949066,227.868378 309.971344,227.938477 
	C309.993622,228.008560 309.999817,228.000275 310.003235,227.997833 
z"/>
<path fill="#407B6B" opacity="1.000000" stroke="none" 
	d="
M216.987122,196.992950 
	C213.620102,197.308075 210.253082,197.623199 206.483658,197.975693 
	C207.697083,194.523087 209.312912,191.033127 210.937134,187.164642 
	C219.941162,176.004562 228.936798,165.223038 238.090057,154.252579 
	C240.350525,155.320984 242.178741,156.379990 244.140945,157.041656 
	C245.377594,157.458649 247.618240,157.817261 247.992096,157.256973 
	C248.735458,156.142883 248.779617,154.339905 248.590683,152.889542 
	C248.407181,151.480881 247.569992,150.157364 246.987915,148.407074 
	C251.680359,154.806427 255.384720,161.824707 251.564026,170.683640 
	C247.036880,170.687088 242.949615,170.405411 238.858109,170.214676 
	C235.283249,170.048050 233.759430,171.989624 233.767365,175.400177 
	C233.776062,179.144150 233.769348,182.888153 233.769348,186.959854 
	C229.500412,186.959854 226.213013,186.954193 222.925659,186.961426 
	C219.527649,186.968887 217.762497,188.788757 217.387634,192.059799 
	C217.199890,193.697968 217.117279,195.348190 216.987122,196.992950 
z"/>
<path fill="#337262" opacity="1.000000" stroke="none" 
	d="
M134.427917,235.018051 
	C136.388550,233.633286 138.735046,232.248856 141.419800,230.786621 
	C139.443283,232.145340 137.128525,233.581863 134.427917,235.018051 
z"/>
<path fill="#337262" opacity="1.000000" stroke="none" 
	d="
M142.117737,230.769165 
	C143.548325,229.474045 145.362823,228.213043 147.503662,226.869232 
	C146.053864,228.125366 144.277756,229.464325 142.117737,230.769165 
z"/>
<path fill="#337262" opacity="1.000000" stroke="none" 
	d="
M147.998611,226.758484 
	C147.993942,226.593323 148.221466,226.328278 148.720291,226.032578 
	C148.738007,226.220825 148.484390,226.439713 147.998611,226.758484 
z"/>
<path fill="#F7FBFA" opacity="1.000000" stroke="none" 
	d="
M217.082214,197.393692 
	C217.117279,195.348190 217.199890,193.697968 217.387634,192.059799 
	C217.762497,188.788757 219.527649,186.968887 222.925659,186.961426 
	C226.213013,186.954193 229.500412,186.959854 233.769348,186.959854 
	C233.769348,182.888153 233.776062,179.144150 233.767365,175.400177 
	C233.759430,171.989624 235.283249,170.048050 238.858109,170.214676 
	C242.949615,170.405411 247.036880,170.687088 251.516937,171.073761 
	C252.378174,176.281876 252.848450,181.345505 253.373230,186.995911 
	C257.050812,186.995911 260.665131,187.079880 264.273621,186.970490 
	C267.407471,186.875488 268.910126,188.317596 269.012207,191.376556 
	C269.028839,191.875443 269.085114,192.374619 269.073975,192.872559 
	C268.815674,204.412476 271.498169,207.102600 256.964844,205.958466 
	C253.779068,205.707672 252.310349,206.774200 252.547745,210.106750 
	C252.736557,212.757233 252.636719,215.428268 252.770874,218.545746 
	C252.876709,219.001297 252.690552,219.233780 252.502731,219.627365 
	C250.598190,220.956238 248.957062,222.468781 247.148865,222.705597 
	C243.483688,223.185638 239.728073,222.974838 236.009735,223.048859 
	C235.115158,222.193542 234.220581,221.338211 233.122009,220.243988 
	C232.944183,219.552231 232.970367,219.099380 232.996643,217.855896 
	C232.996719,213.842270 232.996719,210.619293 232.996719,207.148361 
	C229.777191,207.148361 226.890976,207.148361 224.004745,207.148346 
	C223.554672,207.098969 223.104614,207.049576 222.077728,207.004272 
	C221.500931,207.008347 221.014099,207.121292 221.014099,207.121292 
	C221.014099,207.121292 220.611588,206.966293 220.293243,206.681732 
	C219.664612,206.189316 219.354309,205.981461 219.044022,205.773621 
	C219.044022,205.773621 219.101273,205.818756 219.120453,205.787720 
	C218.485535,203.102600 217.831421,200.448517 217.082214,197.393692 
z"/>
<path fill="#588D7D" opacity="1.000000" stroke="none" 
	d="
M398.558167,292.867065 
	C394.999603,293.468536 391.833649,293.900330 388.465302,294.359741 
	C389.446899,288.508392 394.373413,285.598938 398.910980,287.681183 
	C402.317291,289.244324 402.118713,290.999390 398.558167,292.867065 
z"/>
<path fill="#588D7D" opacity="1.000000" stroke="none" 
	d="
M334.097961,298.951294 
	C335.571716,298.536469 336.949402,297.762939 337.752258,298.157867 
	C340.071869,299.298950 342.379730,300.695557 344.158630,302.513885 
	C344.526398,302.889801 342.766357,306.715424 341.677094,306.878265 
	C338.990784,307.279938 335.630280,307.283356 333.458588,305.950958 
	C330.874786,304.365723 331.507782,301.348907 334.097961,298.951294 
z"/>
<path fill="#377967" opacity="1.000000" stroke="none" 
	d="
M224.140747,207.454681 
	C226.890976,207.148361 229.777191,207.148361 232.996719,207.148361 
	C232.996719,210.619293 232.996719,213.842270 232.924896,217.522522 
	C231.622528,217.003006 230.156448,216.211365 229.211945,215.009750 
	C227.409775,212.716995 225.904968,210.190475 224.140747,207.454681 
z"/>
<path fill="#377967" opacity="1.000000" stroke="none" 
	d="
M219.209229,205.991730 
	C219.354309,205.981461 219.664612,206.189316 220.077942,206.669220 
	C219.912140,206.697449 219.643280,206.453644 219.209229,205.991730 
z"/>
<path fill="#377967" opacity="1.000000" stroke="none" 
	d="
M221.126312,207.198761 
	C221.014099,207.121292 221.500931,207.008347 221.743042,207.070282 
	C221.985138,207.132217 221.628494,207.318481 221.628494,207.318481 
	C221.628494,207.318481 221.238541,207.276215 221.126312,207.198761 
z"/>
<path fill="#337262" opacity="1.000000" stroke="none" 
	d="
M236.361816,223.257965 
	C239.728073,222.974838 243.483688,223.185638 247.148865,222.705597 
	C248.957062,222.468781 250.598190,220.956238 252.592865,219.745911 
	C252.164841,220.944763 251.458878,222.418655 250.373413,223.950592 
	C245.567230,223.828110 241.140579,223.647583 236.361816,223.257965 
z"/>
</svg>